<?xml version="1.0" encoding="utf-8"?>
<!-- Generator: Adobe Illustrator 15.0.0, SVG Export Plug-In . SVG Version: 6.00 Build 0)  -->
<!DOCTYPE svg PUBLIC "-//W3C//DTD SVG 1.1//EN" "http://www.w3.org/Graphics/SVG/1.1/DTD/svg11.dtd">
<svg version="1.1" id="图层_1" xmlns="http://www.w3.org/2000/svg" xmlns:xlink="http://www.w3.org/1999/xlink" x="0px" y="0px"
	 width="595.279px" height="841.89px" viewBox="0 0 595.279 841.89" enable-background="new 0 0 595.279 841.89"
	 xml:space="preserve">
<g>
	
		<radialGradient id="SVGID_1_" cx="143.5803" cy="783.4878" r="596.7986" gradientTransform="matrix(1 0 0 1.2426 -0.04 -205.1957)" gradientUnits="userSpaceOnUse">
		<stop  offset="0" style="stop-color:#FFFFFF"/>
		<stop  offset="0.0613" style="stop-color:#FFFFFF"/>
		<stop  offset="0.0714" style="stop-color:#FFFFFF"/>
		<stop  offset="0.0732" style="stop-color:#FEFFFF"/>
		<stop  offset="0.1159" style="stop-color:#EDF8FE"/>
		<stop  offset="0.1689" style="stop-color:#E2F3FD"/>
		<stop  offset="0.2435" style="stop-color:#DBF0FC"/>
		<stop  offset="0.4505" style="stop-color:#D9EFFC"/>
		<stop  offset="0.5394" style="stop-color:#D0ECFB"/>
		<stop  offset="0.6875" style="stop-color:#B7E2F9"/>
		<stop  offset="0.8757" style="stop-color:#86D0F4"/>
		<stop  offset="0.9011" style="stop-color:#7ECEF4"/>
	</radialGradient>
	<path display="none" fill="url(#SVGID_1_)" d="M583.288,701.052c-61.816,0-519.354,0-583.288,0v139.066
		c59.557,0,521.175,0,583.288,0V701.052z"/>
	<g>
		<g>
			<path fill="#A7D4A2" d="M583.178,828.515c-22.026,0-270.979,0-294.592,0v-32.857c0.021-0.021,0.036-0.041,0.036-0.041h0.628
				v0.238h0.304v0.383h1.525v-0.33h0.232v-0.238h0.799v0.213h0.472v0.535h0.182v0.242c0,0-0.099,0.205-0.203,0.328
				c-0.106,0.119,0.168,0.395,0.168,0.395v1.494h0.572v1.68h0.259v-0.229h1.233v-1.795h2.173c0,0,0.229-0.49,0.431-0.49
				c0.199,0,0.199,0.459,0.199,0.459h0.498v0.217h2.959v0.34h0.123v1.484h0.91v-0.43h0.809v-0.318h0.212v0.357h0.976v-0.145h0.182
				v-0.543h2.739l0.292-0.129c0,0,0,0,0.291,0c0.292,0,0,0.762,0,0.762l0.336,0.166v-0.584h1.258v-0.256h1.106v-0.418h0.598v-0.275
				h0.561v-0.971h0.151v-0.6l0.243-0.273v1.688c0,0,0.155,0.063,0.366,0.063c0.215,0,0.271,0.371,0.271,0.371h0.562v3.227h0.888
				v0.238h0.11v-0.533h0.336v-0.967h2.065v0.877h0.348v0.318h0.262v-8.301h0.998v-0.99h2.68v0.912h0.999v6.512h0.349v1.068h0.35
				c0,0,0,3.91,0,4.188s0.518,0.291,0.518,0.291v-1.027h0.313v-0.303h-0.414v-0.178h0.854v-0.521h1.659v0.291h0.293
				c0,0,1.355,0.039,1.872,0.217c0.519,0.174,0.525,0.367,0.525,0.367v-4.48h0.751v-0.281h-0.166v-0.197h0.305v0.215h0.292v-0.266
				h0.269v0.342h0.126v-0.893l-0.249,0.117c0,0,0-0.189,0.059-0.189c0.056,0,0.291-0.203,0.291-0.203v0.928h0.246v0.445h1.932v5.693
				h2.118v0.357h0.154l0.866-8.795h0.112c0,0,0.448-3.785,0.448-4.139c0-0.357,0.235-0.064,0.235-0.064l0.368,4.162h0.146
				l0.339,4.977c0,0,0.076,0,0.166,0c0.091,0,0.103,0.215,0.103,0.215h0.896v1.602h0.292v0.355h0.188v-0.365h0.707v0.291h1.865
				c0,0,0-1.701,0-2.518c0-0.811,0.233-0.834,0.233-0.834h0.313v-0.23h0.372v0.217h0.213V801h0.156c0,0,0-1.064,0-1.281
				c0-0.211,0.032-0.352,0.213-0.402c0.178-0.051,0.527-0.471,0.527-0.471l0.088-0.291h0.203v-1.143l-0.448,0.277
				c0,0-0.104-0.252-0.013-0.252s0.507-0.678,0.507-0.678l0.065,1.83h0.129v0.172l0.424,0.479l0.21,0.1l0.103,0.115l0.171,0.107
				v1.699c0,0,0.104-0.109,0.192-0.006c0.096,0.105,0.169,0.646,0.169,0.646v1.354h0.271v-0.486h0.263c0,0,0.144-0.158,0.396-0.273
				c0.25-0.115,0.57,0,0.57,0s0.185,0,0.468,0c0.288,0,0.457,0.229,0.457,0.229h0.271v-3.367h0.605c0,0,0-0.4,0.166-0.592
				c0.17-0.188,0.206-1.506,0.206-1.506s0,0.703,0,1.262c0,0.551,0.284,0.797,0.284,0.797v-0.496h1.952v2.553h1.78v0.494l0.72-0.465
				l0.479,0.541v1.809l1.16-1.311v-1.375h1.178v-1.105h0.271v-0.377h2.728l0.103,0.529h0.305v0.307h0.755c0-0.254,0-0.395,0-0.395
				h3.177v4.078h0.269v0.264h0.428v-0.521h0.346v-0.33h0.541v-3.564h0.181c0,0,0.043-0.217,0.043-0.455
				c0-0.24,0.383-0.279,0.383-0.279v-2.717h0.146v-0.646h0.328l0.199-0.229h0.631v0.236h0.302v0.385h1.524v-0.33h0.235v-0.24h0.797
				v0.213h0.471v0.537h0.181v0.242c0,0-0.095,0.203-0.201,0.328c-0.104,0.117,0.17,0.396,0.17,0.396v1.49h0.57v1.682h0.259v-0.23
				h1.233v-1.797h2.172c0,0,0.229-0.488,0.432-0.488c0.2,0,0.2,0.457,0.2,0.457h0.495v0.221h2.962v0.34h0.123v1.48h0.908v-0.43
				h0.811V799.8h0.211v0.357h0.979v-0.141h0.18v-0.545h2.736l0.292-0.129c0,0,0,0,0.292,0c0.291,0,0,0.764,0,0.764l0.336,0.164
				v-0.582h1.258v-0.258h1.111v-0.418h0.595v-0.275h0.563v-0.971h0.149v-0.6l0.24-0.271v1.684c0,0,0.157,0.064,0.371,0.064
				c0.213,0,0.271,0.369,0.271,0.369h0.562v3.229h0.886v0.24h0.11v-0.535h0.338v-0.965h2.064v0.875h0.346v0.316h0.263v-8.301h0.996
				v-0.99h2.682v0.914h0.999v6.512h0.351v1.066h0.348c0,0,0,3.91,0,4.189c0,0.277,0.518,0.291,0.518,0.291v-1.027h0.313v-0.303
				h-0.418v-0.18h0.854v-0.52h1.661v0.291h0.29c0,0,1.357,0.039,1.875,0.217c0.518,0.176,0.527,0.367,0.527,0.367v-4.48h0.751
				v-0.279h-0.166v-0.201h0.303v0.217h0.289v-0.266h0.271v0.34h0.123v-0.889l-0.246,0.115c0,0,0-0.191,0.054-0.191
				c0.057,0,0.293-0.203,0.293-0.203v0.928h0.247v0.445h1.929v5.697h2.121v0.355h0.156l0.863-8.797h0.113
				c0,0,0.447-3.785,0.447-4.139c0-0.355,0.235-0.063,0.235-0.063l0.37,4.16h0.146l0.339,4.979c0,0,0.076,0,0.167,0
				c0.089,0,0.101,0.213,0.101,0.213h0.897v1.6h0.292v0.359h0.189v-0.369h0.707v0.291h1.861c0,0,0-1.701,0-2.514
				s0.235-0.836,0.235-0.836h0.313v-0.232h0.371v0.217h0.214V801h0.157c0,0,0-1.066,0-1.281c0-0.211,0.032-0.352,0.215-0.402
				c0.178-0.053,0.525-0.473,0.525-0.473l0.089-0.291h0.202v-1.141l-0.45,0.275c0,0-0.101-0.252-0.01-0.252
				c0.09,0,0.505-0.674,0.505-0.674l0.065,1.83h0.131v0.172l0.42,0.475l0.213,0.102l0.104,0.115l0.171,0.107v1.701
				c0,0,0.1-0.111,0.189-0.008c0.095,0.104,0.169,0.646,0.169,0.646v1.352h0.271v-0.484h0.263c0,0,0.145-0.158,0.396-0.275
				c0.253-0.115,0.568,0,0.568,0s0.188,0,0.473,0c0.288,0,0.458,0.23,0.458,0.23h0.268v-3.369h0.604c0,0,0-0.402,0.169-0.59
				c0.17-0.191,0.203-1.506,0.203-1.506s0,0.703,0,1.258c0,0.551,0.284,0.799,0.284,0.799v-0.498h1.95v2.553h1.785v0.496
				l0.715-0.467l0.481,0.541v1.811l1.16-1.313v-1.373h1.18v-1.104h0.269v-0.379h2.727l0.104,0.531h0.304v0.307c0,0,0.021,0,0.062,0
				v-0.473h0.18c0,0,0.043-0.217,0.043-0.455c0-0.24,0.383-0.279,0.383-0.279V796.5h0.146v-0.648h0.325l0.202-0.229h0.628v0.236
				h0.302v0.385h1.527v-0.33h0.233v-0.238h0.796v0.213h0.474v0.535h0.179v0.242c0,0-0.096,0.203-0.202,0.328
				c-0.104,0.119,0.169,0.395,0.169,0.395v1.494h0.571v1.682h0.26v-0.23h1.234v-1.797h2.169c0,0,0.229-0.488,0.435-0.488
				c0.201,0,0.201,0.459,0.201,0.459h0.491v0.217h2.962v0.34h0.126v1.484h0.905v-0.432h0.81V799.8h0.213v0.355h0.979v-0.143h0.18
				v-0.543h2.737l0.291-0.129c0,0,0,0,0.294,0c0.29,0,0,0.764,0,0.764l0.335,0.166v-0.584h1.254v-0.258h1.112v-0.418h0.596v-0.275
				h0.562v-0.969h0.149v-0.604l0.243-0.27v1.684c0,0,0.155,0.064,0.368,0.064s0.271,0.369,0.271,0.369h0.56v3.227h0.887v0.24h0.111
				v-0.533h0.336v-0.967h2.063v0.877h0.35v0.316h0.261v-8.303h0.999v-0.988h2.68v0.912h0.998v6.514h0.348v1.064h0.351
				c0,0,0,3.91,0,4.189c0,0.277,0.516,0.291,0.516,0.291v-1.027h0.314v-0.303h-0.414v-0.178h0.852v-0.521h1.661v0.291h0.291
				c0,0,1.357,0.039,1.873,0.215s0.528,0.367,0.528,0.367v-4.479h0.749v-0.281h-0.165v-0.201h0.3v0.217h0.294v-0.266h0.27v0.34
				h0.123v-0.889l-0.245,0.117c0,0,0-0.191,0.056-0.191c0.057,0,0.294-0.203,0.294-0.203v0.926h0.245v0.447h1.928v5.695h2.123v0.357
				h0.156l0.864-8.797h0.11c0,0,0.45-3.785,0.45-4.137c0-0.357,0.231-0.064,0.231-0.064l0.369,4.16h0.146l0.336,4.979
				c0,0,0.081,0,0.168,0c0.09,0,0.104,0.215,0.104,0.215h0.896v1.6h0.291v0.357h0.188v-0.367h0.707v0.291h1.865c0,0,0-1.701,0-2.516
				c0-0.811,0.233-0.834,0.233-0.834h0.313v-0.232h0.369v0.215h0.216v-0.15h0.156c0,0,0-1.064,0-1.281
				c0-0.211,0.033-0.354,0.213-0.402c0.18-0.051,0.527-0.471,0.527-0.471l0.09-0.291h0.201v-1.145l-0.447,0.277
				c0,0-0.102-0.252-0.012-0.252s0.507-0.676,0.507-0.676l0.063,1.83h0.131v0.172l0.423,0.475l0.213,0.104l0.1,0.113l0.171,0.107
				v1.701c0,0,0.104-0.111,0.191-0.006c0.096,0.104,0.171,0.645,0.171,0.645v1.354h0.267v-0.484h0.266c0,0,0.142-0.158,0.396-0.273
				c0.252-0.117,0.569,0,0.569,0s0.186,0,0.474,0c0.285,0,0.453,0.229,0.453,0.229h0.271v-3.369h0.604c0,0,0-0.402,0.168-0.59
				c0.168-0.189,0.201-1.506,0.201-1.506s0,0.703,0,1.26c0,0.551,0.287,0.797,0.287,0.797v-0.496h1.952v2.553h1.783v0.494
				l0.717-0.465l0.479,0.541v1.811l1.16-1.313v-1.375h1.179v-1.104h0.271v-0.379h2.729l0.101,0.531h0.303v0.307h0.759
				c0-0.256,0-0.396,0-0.396h3.172v4.078h0.271v0.262h0.429v-0.52h0.345v-0.33h0.54v-3.564h0.182c0,0,0.048-0.217,0.048-0.457
				c0-0.238,0.378-0.275,0.378-0.275v-2.717h0.146v-0.648h0.327l0.201-0.23h0.629v0.238h0.3v0.383h1.529v-0.33h0.234v-0.236h0.794
				v0.213h0.474v0.535h0.181v0.24c0,0-0.097,0.205-0.202,0.328c-0.108,0.119,0.168,0.396,0.168,0.396v1.492h0.57v1.68h0.26v-0.23
				h1.233v-1.795h2.173c0,0,0.229-0.488,0.431-0.488c0.203,0,0.203,0.459,0.203,0.459h0.494v0.219h2.959v0.34h0.123v1.482h0.911
				v-0.432h0.809v-0.32h0.216v0.357h0.974v-0.143h0.183v-0.545h2.735l0.29-0.129c0,0,0,0,0.291,0c0.294,0,0,0.766,0,0.766
				l0.336,0.162v-0.58h1.259v-0.26h1.109v-0.418h0.597v-0.273h0.563v-0.973h0.151v-0.6l0.239-0.271v1.686
				c0,0,0.156,0.063,0.372,0.063c0.213,0,0.269,0.371,0.269,0.371h0.563v3.227h0.885v0.24h0.114v-0.535h0.335v-0.965h2.063v0.875
				h0.351v0.318h0.255v-8.301h0.998v-0.99h2.686v0.912h0.997v6.514h0.349v1.066h0.351c0,0,0,3.91,0,4.188s0.515,0.291,0.515,0.291
				v-1.027h0.313v-0.303h-0.417v-0.178h0.854v-0.521h1.655v0.291h0.294c0,0,1.358,0.039,1.875,0.217
				c0.517,0.174,0.523,0.367,0.523,0.367v-4.479h0.756v-0.281h-0.171v-0.201h0.303v0.215h0.294v-0.264h0.271v0.34h0.123v-0.889
				l-0.249,0.117c0,0,0-0.193,0.057-0.193c0.06,0,0.291-0.203,0.291-0.203v0.928h0.246v0.445h1.935v5.697h2.119v0.355h0.155
				l0.863-8.795h0.114c0,0,0.444-3.785,0.444-4.139c0-0.357,0.237-0.064,0.237-0.064l0.372,4.162h0.146l0.336,4.979
				c0,0,0.078,0,0.168,0c0.092,0,0.101,0.213,0.101,0.213h0.896v1.6h0.299v0.359h0.188v-0.369h0.708v0.291h1.861
				c0,0,0-1.701,0-2.516c0-0.811,0.232-0.834,0.232-0.834h0.317v-0.232h0.369v0.217h0.213v-0.154h0.155c0,0,0-1.063,0-1.279
				c0-0.211,0.036-0.354,0.213-0.402c0.18-0.051,0.526-0.473,0.526-0.473l0.092-0.291h0.202v-1.143l-0.451,0.277
				c0,0-0.101-0.252-0.011-0.252c0.092,0,0.504-0.674,0.504-0.674l0.068,1.828h0.126v0.174l0.423,0.475l0.213,0.1l0.104,0.115
				l0.171,0.109v1.701c0,0,0.104-0.111,0.195-0.008c0.093,0.104,0.168,0.646,0.168,0.646v1.352h0.27v-0.484h0.263
				c0,0,0.141-0.158,0.396-0.275c0.252-0.115,0.57,0,0.57,0s0.186,0,0.471,0c0.287,0,0.455,0.23,0.455,0.23h0.27v-3.369h0.609
				c0,0,0-0.402,0.164-0.59c0.172-0.191,0.204-1.508,0.204-1.508s0,0.703,0,1.26c0,0.551,0.285,0.799,0.285,0.799v-0.498h1.951
				v2.553h1.782v0.496l0.718-0.467l0.479,0.541v1.809l1.16-1.311v-1.373h1.179v-1.105c0,0,0.054,0,0.113,0v28.549H583.178
				L583.178,828.515z"/>
		</g>
		<g>
			<path fill="#A7D4A2" d="M294.703,828.515c-22.025,0-270.978,0-294.591,0v-32.857c0.021-0.021,0.035-0.041,0.035-0.041h0.628
				v0.238h0.304v0.383h1.525v-0.33h0.232v-0.238h0.8v0.213h0.472v0.535h0.181v0.242c0,0-0.099,0.205-0.203,0.328
				c-0.106,0.119,0.17,0.395,0.17,0.395v1.494h0.57v1.68h0.259v-0.229H6.32v-1.795h2.173c0,0,0.229-0.49,0.43-0.49
				c0.201,0,0.201,0.459,0.201,0.459H9.62v0.217h2.959v0.34h0.123v1.484h0.909v-0.43h0.81v-0.318h0.213v0.357h0.978v-0.145h0.18
				v-0.543h2.737l0.292-0.129c0,0,0,0,0.292,0s0,0.762,0,0.762l0.335,0.166v-0.584h1.26v-0.256h1.107v-0.418h0.596v-0.275h0.563
				v-0.971h0.149v-0.6l0.242-0.273v1.688c0,0,0.157,0.063,0.37,0.063c0.211,0,0.269,0.371,0.269,0.371h0.563v3.227h0.888v0.238
				h0.111v-0.533H25.9v-0.967h2.063v0.877h0.349v0.318h0.259v-8.301h1v-0.99h2.681v0.912h0.998v6.512h0.35v1.068h0.349
				c0,0,0,3.91,0,4.188s0.518,0.291,0.518,0.291v-1.027h0.313v-0.303h-0.414v-0.178h0.854v-0.521h1.659v0.291h0.291
				c0,0,1.356,0.039,1.873,0.217c0.519,0.174,0.526,0.367,0.526,0.367v-4.48h0.75v-0.281H40.15v-0.197h0.304v0.215h0.291v-0.266
				h0.271v0.342h0.126v-0.893l-0.249,0.117c0,0,0-0.189,0.057-0.189c0.058,0,0.294-0.203,0.294-0.203v0.928h0.244v0.445h1.933v5.693
				h2.118v0.357h0.155l0.865-8.795h0.112c0,0,0.449-3.785,0.449-4.139c0-0.357,0.233-0.064,0.233-0.064l0.369,4.162h0.146
				l0.338,4.977c0,0,0.077,0,0.166,0c0.09,0,0.104,0.215,0.104,0.215h0.896v1.602h0.292v0.355h0.188v-0.365h0.707v0.291h1.864
				c0,0,0-1.701,0-2.518c0-0.811,0.232-0.834,0.232-0.834h0.315v-0.23h0.37v0.217h0.214V801h0.155c0,0,0-1.064,0-1.281
				c0-0.211,0.033-0.352,0.212-0.402c0.18-0.049,0.528-0.471,0.528-0.471l0.09-0.291h0.202v-1.143l-0.448,0.277
				c0,0-0.104-0.252-0.013-0.252c0.089,0,0.507-0.678,0.507-0.678l0.065,1.83h0.128v0.172l0.424,0.479l0.21,0.1l0.104,0.115
				l0.172,0.107v1.699c0,0,0.104-0.109,0.19-0.006c0.097,0.105,0.17,0.646,0.17,0.646v1.354h0.271v-0.486h0.261
				c0,0,0.146-0.158,0.396-0.273s0.57,0,0.57,0s0.186,0,0.47,0c0.286,0,0.455,0.229,0.455,0.229h0.27v-3.367h0.606
				c0,0,0-0.4,0.166-0.592c0.171-0.188,0.206-1.506,0.206-1.506s0,0.703,0,1.262c0,0.551,0.284,0.797,0.284,0.797v-0.496h1.951
				v2.553h1.782v0.494l0.718-0.465l0.479,0.541v1.809l1.16-1.311v-1.375h1.179v-1.105h0.271v-0.377h2.729l0.101,0.529h0.305v0.307
				h0.757c0-0.254,0-0.395,0-0.395h3.176v4.078h0.269v0.264h0.429v-0.521h0.346v-0.33h0.54v-3.564h0.18c0,0,0.044-0.217,0.044-0.455
				c0-0.24,0.382-0.279,0.382-0.279v-2.717h0.146v-0.646h0.329l0.199-0.229h0.63v0.236h0.303v0.385h1.523v-0.33h0.235v-0.24h0.796
				v0.213h0.473v0.537h0.18v0.242c0,0-0.095,0.203-0.202,0.328c-0.104,0.117,0.168,0.396,0.168,0.396v1.49h0.574v1.682h0.257v-0.23
				h1.234v-1.797h2.172c0,0,0.229-0.488,0.432-0.488c0.201,0,0.201,0.457,0.201,0.457h0.495v0.221h2.961v0.34h0.123v1.48h0.91v-0.43
				h0.806V799.8h0.214v0.357h0.979v-0.141h0.181v-0.545h2.735l0.293-0.129c0,0,0,0,0.291,0c0.293,0,0,0.764,0,0.764l0.336,0.164
				v-0.582h1.258v-0.258h1.111v-0.418h0.594v-0.275h0.563v-0.971h0.149v-0.6l0.241-0.271v1.684c0,0,0.154,0.064,0.37,0.064
				c0.213,0,0.27,0.369,0.27,0.369h0.563v3.229h0.886v0.24h0.109v-0.535h0.34v-0.965h2.063v0.875h0.346v0.316h0.263v-8.301h0.996
				v-0.99h2.682v0.914h0.999v6.512h0.35v1.066h0.35c0,0,0,3.91,0,4.189c0,0.277,0.515,0.291,0.515,0.291v-1.027h0.314v-0.303h-0.417
				v-0.18h0.853v-0.52h1.663v0.291h0.29c0,0,1.357,0.039,1.875,0.217c0.517,0.176,0.527,0.367,0.527,0.367v-4.48h0.75v-0.279h-0.166
				v-0.201h0.303v0.217h0.289v-0.266h0.271v0.34h0.123v-0.889l-0.246,0.115c0,0,0-0.191,0.055-0.191
				c0.058,0,0.292-0.203,0.292-0.203v0.928h0.249v0.445h1.929v5.697h2.121v0.355h0.156l0.862-8.797h0.112
				c0,0,0.447-3.785,0.447-4.139c0-0.355,0.235-0.063,0.235-0.063l0.371,4.16h0.146l0.338,4.979c0,0,0.077,0,0.166,0
				c0.09,0,0.102,0.213,0.102,0.213h0.898v1.6h0.291v0.359h0.189v-0.369h0.706v0.291h1.863c0,0,0-1.701,0-2.514
				s0.234-0.836,0.234-0.836h0.313v-0.232h0.372v0.217h0.211V801h0.16c0,0,0-1.066,0-1.281c0-0.211,0.032-0.352,0.213-0.402
				c0.18-0.053,0.526-0.473,0.526-0.473l0.09-0.291h0.202v-1.141l-0.451,0.275c0,0-0.1-0.252-0.011-0.252
				c0.09,0,0.506-0.674,0.506-0.674l0.065,1.83h0.132v0.172l0.419,0.475l0.213,0.102l0.104,0.115l0.172,0.107v1.701
				c0,0,0.101-0.111,0.19-0.008c0.094,0.104,0.17,0.646,0.17,0.646v1.352h0.271v-0.484h0.26c0,0,0.146-0.158,0.396-0.275
				c0.253-0.115,0.57,0,0.57,0s0.188,0,0.472,0c0.287,0,0.456,0.23,0.456,0.23h0.271v-3.369h0.604c0,0,0-0.402,0.169-0.59
				c0.169-0.191,0.202-1.506,0.202-1.506s0,0.703,0,1.258c0,0.551,0.286,0.799,0.286,0.799v-0.498h1.949v2.553h1.785v0.496
				l0.715-0.467l0.48,0.541v1.811l1.161-1.313v-1.373H145v-1.104h0.271v-0.379h2.726l0.104,0.531h0.302v0.307c0,0,0.022,0,0.063,0
				v-0.473h0.181c0,0,0.044-0.217,0.044-0.455c0-0.24,0.382-0.279,0.382-0.279V796.5h0.146v-0.648h0.325l0.203-0.229h0.627v0.236
				h0.302v0.385h1.527v-0.33h0.234v-0.238h0.797v0.213h0.473v0.535h0.179v0.242c0,0-0.098,0.203-0.201,0.328
				c-0.108,0.119,0.169,0.395,0.169,0.395v1.494h0.571v1.682h0.259v-0.23h1.233v-1.797h2.17c0,0,0.229-0.488,0.435-0.488
				c0.202,0,0.202,0.459,0.202,0.459h0.49v0.217h2.961v0.34h0.127v1.484h0.906v-0.432h0.811V799.8h0.212v0.355h0.978v-0.143h0.183
				v-0.543h2.735l0.291-0.129c0,0,0,0,0.292,0s0,0.764,0,0.764l0.336,0.166v-0.584h1.255v-0.258h1.112v-0.418h0.595v-0.275h0.562
				v-0.969h0.152v-0.604l0.241-0.27v1.684c0,0,0.156,0.064,0.369,0.064s0.271,0.369,0.271,0.369h0.56v3.227h0.886v0.24h0.111v-0.533
				h0.337v-0.967h2.063v0.877h0.35v0.316h0.259v-8.303h0.999v-0.988h2.684v0.912h0.996v6.514h0.349v1.064h0.35c0,0,0,3.91,0,4.189
				c0,0.277,0.516,0.291,0.516,0.291v-1.027h0.314v-0.303h-0.415v-0.178h0.854v-0.521h1.66v0.291h0.292c0,0,1.357,0.039,1.872,0.215
				c0.518,0.176,0.526,0.367,0.526,0.367v-4.479h0.752v-0.281h-0.167v-0.201h0.302v0.217h0.294v-0.266h0.269v0.34h0.123v-0.889
				l-0.247,0.117c0,0,0-0.191,0.059-0.191c0.057,0,0.292-0.203,0.292-0.203v0.926h0.245v0.447H193v5.695h2.121v0.357h0.155
				l0.867-8.797h0.11c0,0,0.449-3.785,0.449-4.137c0-0.357,0.235-0.064,0.235-0.064l0.368,4.16h0.146l0.336,4.979
				c0,0,0.082,0,0.169,0c0.09,0,0.104,0.215,0.104,0.215h0.896v1.6h0.291v0.357h0.189v-0.367h0.708v0.291h1.863c0,0,0-1.701,0-2.516
				c0-0.811,0.233-0.834,0.233-0.834h0.313v-0.232h0.368v0.215h0.216v-0.15h0.155c0,0,0-1.064,0-1.281
				c0-0.211,0.034-0.354,0.213-0.402c0.181-0.051,0.527-0.471,0.527-0.471l0.09-0.291h0.202v-1.145l-0.448,0.277
				c0,0-0.101-0.252-0.013-0.252c0.09,0,0.507-0.676,0.507-0.676l0.066,1.83h0.128v0.172l0.424,0.475l0.213,0.104l0.101,0.113
				l0.172,0.107v1.701c0,0,0.104-0.111,0.191-0.006c0.096,0.104,0.169,0.645,0.169,0.645v1.354h0.27v-0.484h0.263
				c0,0,0.144-0.158,0.396-0.273c0.251-0.117,0.567,0,0.567,0s0.188,0,0.476,0c0.282,0,0.452,0.229,0.452,0.229h0.271v-3.369h0.604
				c0,0,0-0.402,0.168-0.59c0.168-0.189,0.201-1.506,0.201-1.506s0,0.703,0,1.26c0,0.551,0.287,0.797,0.287,0.797v-0.496h1.952
				v2.553h1.781v0.494l0.719-0.465l0.479,0.541v1.811l1.159-1.313v-1.375h1.181v-1.104h0.27v-0.379h2.729l0.101,0.531h0.303v0.307
				h0.759c0-0.256,0-0.396,0-0.396h3.174v4.078h0.271v0.262h0.429v-0.52h0.346v-0.33h0.54v-3.564h0.182c0,0,0.046-0.217,0.046-0.457
				c0-0.238,0.379-0.275,0.379-0.275v-2.717h0.146v-0.648h0.328l0.198-0.23h0.632v0.238h0.299v0.383h1.531v-0.33h0.23v-0.236h0.798
				v0.213h0.472v0.535h0.18v0.24c0,0-0.096,0.205-0.201,0.328c-0.108,0.119,0.167,0.396,0.167,0.396v1.492h0.572v1.68h0.258v-0.23
				h1.235v-1.795h2.172c0,0,0.229-0.488,0.431-0.488s0.202,0.459,0.202,0.459h0.494v0.219h2.961v0.34h0.123v1.482h0.91v-0.432h0.809
				v-0.32h0.214v0.357h0.978v-0.143h0.18v-0.545h2.735l0.292-0.129c0,0,0,0,0.291,0c0.293,0,0,0.766,0,0.766l0.336,0.162v-0.58
				h1.258v-0.26h1.108v-0.418h0.599v-0.273h0.562v-0.973h0.151v-0.6l0.239-0.271v1.686c0,0,0.156,0.063,0.372,0.063
				c0.213,0,0.268,0.371,0.268,0.371h0.563v3.227h0.886v0.24h0.112v-0.535h0.336v-0.965h2.063v0.875h0.351v0.318h0.256v-8.301h0.998
				v-0.99h2.684v0.912h0.998v6.514h0.349v1.066h0.351c0,0,0,3.91,0,4.188s0.514,0.291,0.514,0.291v-1.027h0.313v-0.303h-0.415
				v-0.178h0.854v-0.521h1.657v0.291h0.293c0,0,1.356,0.039,1.875,0.217c0.517,0.174,0.525,0.367,0.525,0.367v-4.479h0.754v-0.281
				h-0.17v-0.201h0.303v0.215h0.293v-0.264h0.271v0.34h0.122v-0.889l-0.249,0.117c0,0,0-0.193,0.057-0.193
				c0.058,0,0.292-0.203,0.292-0.203v0.928h0.246v0.445h1.933v5.697h2.121v0.355h0.155l0.862-8.795h0.112
				c0,0,0.447-3.785,0.447-4.139c0-0.357,0.236-0.064,0.236-0.064l0.37,4.162h0.146l0.336,4.979c0,0,0.08,0,0.168,0
				c0.09,0,0.103,0.213,0.103,0.213h0.896v1.6h0.296v0.359h0.188v-0.369h0.708v0.291h1.86c0,0,0-1.701,0-2.516
				c0-0.811,0.235-0.834,0.235-0.834h0.315v-0.232h0.368v0.217h0.213v-0.154h0.157c0,0,0-1.063,0-1.279
				c0-0.211,0.034-0.354,0.214-0.402c0.18-0.051,0.526-0.473,0.526-0.473l0.09-0.291h0.202v-1.143l-0.451,0.277
				c0,0-0.099-0.252-0.009-0.252c0.088,0,0.504-0.674,0.504-0.674l0.065,1.828h0.128v0.174l0.424,0.475l0.213,0.1l0.103,0.115
				l0.17,0.109v1.701c0,0,0.103-0.111,0.194-0.008s0.17,0.646,0.17,0.646v1.352h0.27v-0.484h0.262c0,0,0.141-0.158,0.396-0.275
				c0.254-0.115,0.57,0,0.57,0s0.188,0,0.472,0c0.288,0,0.456,0.23,0.456,0.23h0.271v-3.369h0.606c0,0,0-0.402,0.166-0.59
				c0.169-0.191,0.202-1.508,0.202-1.508s0,0.703,0,1.26c0,0.551,0.285,0.799,0.285,0.799v-0.498h1.951v2.553h1.784v0.496
				l0.715-0.467l0.48,0.541v1.809l1.16-1.311v-1.373h1.179v-1.105c0,0,0.055,0,0.112,0v28.549H294.703L294.703,828.515z"/>
		</g>
	</g>
	<g>
		<g>
			<g>
				<path fill="#8EC32C" d="M438.626,828.873c0-9.543,0-24.512,0-24.512c-1.521,0-4.599,0-4.599,0v0.754h-0.538v2.199h-2.343v2.727
					l-2.31,2.615v-3.6l-0.957-1.08l-1.421,0.928v-0.984h-3.555v-5.076h-3.882v0.982c0,0-0.57-0.492-0.57-1.588c0-1.102,0-2.5,0-2.5
					s-0.063,2.611-0.399,2.994c-0.336,0.377-0.336,1.172-0.336,1.172h-1.203v6.703h-0.538c0,0-0.335-0.451-0.904-0.451
					c-0.566,0-0.937,0-0.937,0s-0.64-0.229-1.14,0c-0.501,0.229-0.787,0.549-0.787,0.549h-0.521v0.963h-0.533v-2.686
					c0,0-0.149-1.082-0.338-1.289c-0.184-0.209-0.384,0.02-0.384,0.02v-3.391l-0.34-0.217l-0.202-0.227l-0.425-0.201l-0.838-0.945
					v-0.344h-0.258l-0.134-3.637c0,0-0.826,1.336-1.004,1.336c-0.18,0,0.021,0.508,0.021,0.508l0.894-0.557v2.273h-0.398
					l-0.182,0.578c0,0-0.69,0.834-1.049,0.936c-0.354,0.104-0.423,0.381-0.423,0.811c0,0.428,0,2.551,0,2.551h-0.315v0.305h-0.421
					v-0.434h-0.739v0.457h-0.619c0,0-0.472,0.051-0.472,1.666c0,1.617,0,5,0,5h-3.705v-0.58h-1.407v0.734h-0.378v-0.707h-0.578
					v-3.182h-1.789c0,0-0.023-0.434-0.199-0.434c-0.178,0-0.334,0-0.334,0l-0.672-9.9h-0.289l-0.739-8.283
					c0,0-0.468-0.578-0.468,0.127c0,0.707-0.895,8.236-0.895,8.236h-0.224l-1.718,17.504h-0.313v-0.711h-4.22v-11.338h-3.839v-0.889
					h-0.491v-1.844c0,0-0.47,0.404-0.582,0.404c-0.109,0-0.109,0.379-0.109,0.379l0.49-0.229v1.768h-0.246v-0.684h-0.536v0.531
					h-0.578v-0.43h-0.604v0.404h0.336v0.559h-1.498v8.914c0,0-0.021-0.379-1.049-0.734c-1.028-0.352-3.729-0.428-3.729-0.428h-0.577
					v-0.58h-3.309v1.033h-1.696v0.354h0.827v0.605h-0.626v2.047c0,0-1.022-0.025-1.022-0.58c0-0.559,0-8.336,0-8.336h-0.694v-2.123
					h-0.691v-12.955h-1.987v-1.818h-5.336v1.971h-1.983v16.518h-0.518v-0.631h-0.688v-1.74h-4.109v1.918h-0.67v1.063h-0.225v-0.48
					h-1.763v-6.414h-1.116c0,0-0.113-0.732-0.537-0.732c-0.426,0-0.736-0.125-0.736-0.125v-3.361l-0.479,0.543v1.201h-0.3v1.922
					h-1.118v0.557h-1.182v0.83h-2.212v0.508h-2.5v1.16l-0.672-0.326c0,0,0.58-1.518,0-1.518c-0.579,0-0.579,0-0.579,0l-0.581,0.254
					h-5.443v1.084h-0.358v0.279h-1.942v-0.709h-0.425v0.629h-1.606v0.861h-1.81v-2.953h-0.246v-0.682h-5.895v-0.432h-0.981
					c0,0,0-0.908-0.401-0.908c-0.403,0-0.859,0.973-0.859,0.973h-4.317v3.572h-2.457v0.455h-0.515v-3.334h-1.138v-2.98
					c0,0-0.547-0.543-0.336-0.783s0.403-0.654,0.403-0.654v-0.479h-0.359v-1.064h-0.938v-0.428h-1.584v0.48h-0.472v0.656h-3.035
					v-0.76h-0.603v-0.479h-1.25l-0.402,0.453h-0.646v1.287h-0.29v5.402c0,0-0.761,0.078-0.761,0.561c0,0.479-0.09,0.904-0.09,0.904
					h-0.354v7.1h-1.071v0.652h-0.691v1.035h-0.85v-0.529h-0.533v-8.104h-6.319c0,0,0,13.998,0,23.631h151.116V828.873
					L438.626,828.873z"/>
				<g>
					<path fill="#8EC32C" d="M437.994,828.873c0.155-4.857,0.317-9.893,0.317-9.893l0.135-12.955h2.543v-0.609h0.604l0.2-1.055
						h5.426v0.754h0.537v2.199h2.344v2.727l2.309,2.615v-3.6l0.954-1.08l1.427,0.928v-0.984h3.552v-5.076h3.885v0.982
						c0,0,0.565-0.492,0.565-1.588c0-1.102,0-2.5,0-2.5s0.068,2.611,0.404,2.994c0.333,0.377,0.333,1.172,0.333,1.172h1.205v6.703
						h0.536c0,0,0.336-0.451,0.906-0.451c0.564,0,0.935,0,0.935,0s0.636-0.229,1.141,0c0.502,0.229,0.784,0.549,0.784,0.549h0.521
						v0.963h0.537v-2.686c0,0,0.147-1.082,0.336-1.289c0.183-0.209,0.387,0.02,0.387,0.02v-3.391l0.339-0.217l0.2-0.227l0.423-0.201
						l0.84-0.945v-0.344h0.255l0.137-3.637c0,0,0.827,1.336,1.004,1.336c0.18,0-0.021,0.508-0.021,0.508l-0.894-0.557v2.273h0.399
						l0.182,0.578c0,0,0.691,0.834,1.05,0.936c0.354,0.104,0.423,0.381,0.423,0.811c0,0.428,0,2.551,0,2.551h0.313v0.305h0.426
						v-0.434h0.732v0.457h0.627c0,0,0.47,0.051,0.47,1.666c0,1.617,0,5,0,5h3.708v-0.58h1.404v0.734h0.38v-0.707h0.579v-3.182h1.784
						c0,0,0.024-0.434,0.204-0.434c0.177,0,0.333,0,0.333,0l0.671-9.9h0.291l0.734-8.283c0,0,0.471-0.578,0.471,0.127
						c0,0.707,0.893,8.234,0.893,8.234h0.225l1.718,17.506h0.313v-0.711h4.221v-11.338h3.841v-0.889h0.491v-1.844
						c0,0,0.468,0.404,0.582,0.404c0.105,0,0.105,0.379,0.105,0.379l-0.489-0.229v1.768h0.245v-0.684h0.535v0.531h0.582v-0.43h0.604
						v0.402h-0.333v0.561h1.493v8.914c0,0,0.021-0.379,1.049-0.734c1.028-0.352,3.729-0.428,3.729-0.428h0.579v-0.58h3.309v1.033
						h1.694v0.354h-0.825v0.605h0.623v2.047c0,0,1.027-0.027,1.027-0.58c0-0.559,0-8.336,0-8.336h0.692v-2.123h0.69v-12.955h1.984
						v-1.818h5.337v1.971h1.987v16.518h0.513v-0.631h0.692v-1.74h4.105v1.918h0.672v1.063h0.227v-0.48h1.76v-6.414h1.118
						c0,0,0.111-0.732,0.537-0.732c0.422,0,0.732-0.125,0.732-0.125v-3.361l0.482,0.543v1.201h0.3v1.922h1.115v0.555h1.185v0.832
						h2.209v0.508h2.5v1.158l0.669-0.324c0,0-0.576-1.518,0-1.518c0.582,0,0.582,0,0.582,0l0.581,0.254h5.447v1.084h0.357v0.279
						h1.938v-0.709h0.429v0.629h1.606v0.861h1.809v-2.953h0.245v-0.684h5.894v-0.43h0.981c0,0,0-0.908,0.401-0.908
						c0.404,0,0.855,0.973,0.855,0.973h4.323v3.572h2.455v0.455h0.513v-3.334h1.142v-2.98c0,0,0.548-0.543,0.336-0.783
						c-0.213-0.24-0.402-0.654-0.402-0.654v-0.479h0.356v-1.064h0.938v-0.428h1.586v0.48h0.47v0.656h3.033v-0.76h0.604v-0.479h1.247
						l0.402,0.451h0.646v1.289c0,0,0.099,0,0.183,0c0,0,0,19.438,0,30.65H437.994V828.873z"/>
				</g>
			</g>
		</g>
		<g>
			<g>
				<path fill="#8EC32C" d="M294.628,828.873c0-9.543,0-24.512,0-24.512c-1.521,0-4.597,0-4.597,0v0.754h-0.537v2.199h-2.345v2.727
					l-2.31,2.615v-3.6l-0.957-1.08l-1.421,0.928v-0.984h-3.553v-5.076h-3.883v0.982c0,0-0.571-0.492-0.571-1.588
					c0-1.102,0-2.5,0-2.5s-0.064,2.611-0.399,2.994c-0.335,0.377-0.335,1.172-0.335,1.172h-1.205v6.703h-0.537
					c0,0-0.334-0.451-0.902-0.451c-0.57,0-0.938,0-0.938,0s-0.638-0.229-1.139,0c-0.502,0.229-0.788,0.549-0.788,0.549h-0.521v0.963
					h-0.532v-2.686c0,0-0.15-1.082-0.337-1.289c-0.186-0.209-0.385,0.02-0.385,0.02v-3.391l-0.34-0.217l-0.203-0.227l-0.424-0.201
					l-0.839-0.945v-0.344h-0.256l-0.134-3.637c0,0-0.826,1.336-1.006,1.336s0.021,0.508,0.021,0.508l0.894-0.557v2.273h-0.398
					l-0.181,0.578c0,0-0.693,0.834-1.05,0.936c-0.355,0.104-0.424,0.381-0.424,0.811c0,0.428,0,2.551,0,2.551h-0.313v0.305h-0.423
					v-0.434h-0.736v0.457H260c0,0-0.468,0.051-0.468,1.666c0,1.617,0,5,0,5h-3.705v-0.58h-1.408v0.734h-0.377v-0.707h-0.582v-3.182
					h-1.787c0,0-0.022-0.434-0.198-0.434c-0.181,0-0.334,0-0.334,0l-0.673-9.9h-0.288l-0.739-8.283c0,0-0.468-0.578-0.468,0.127
					c0,0.707-0.896,8.236-0.896,8.236h-0.224l-1.717,17.504h-0.313v-0.711h-4.22v-11.338h-3.84v-0.889h-0.492v-1.844
					c0,0-0.469,0.404-0.58,0.404c-0.108,0-0.108,0.379-0.108,0.379l0.488-0.229v1.768h-0.244v-0.684h-0.537v0.531h-0.578v-0.43
					h-0.604v0.404h0.335v0.559h-1.495v8.914c0,0-0.022-0.379-1.051-0.734c-1.026-0.352-3.729-0.428-3.729-0.428h-0.58v-0.58h-3.306
					v1.033h-1.696v0.354h0.825v0.605h-0.625v2.047c0,0-1.022-0.025-1.022-0.58c0-0.559,0-8.336,0-8.336h-0.692v-2.123h-0.693
					v-12.955h-1.987v-1.818h-5.336v1.971h-1.982v16.518h-0.518v-0.631h-0.688v-1.74h-4.112v1.918h-0.668v1.063h-0.223v-0.48H204.1
					v-6.414h-1.117c0,0-0.111-0.732-0.534-0.732c-0.427,0-0.738-0.125-0.738-0.125v-3.361l-0.479,0.543v1.201h-0.3v1.922h-1.118
					v0.557h-1.183v0.83h-2.21v0.508h-2.502v1.16l-0.67-0.326c0,0,0.581-1.518,0-1.518c-0.58,0-0.58,0-0.58,0l-0.58,0.254h-5.444
					v1.084h-0.357v0.279h-1.944v-0.709h-0.424v0.629h-1.605v0.861h-1.81v-2.953h-0.246v-0.682h-5.894v-0.432h-0.981
					c0,0,0-0.908-0.4-0.908c-0.403,0-0.858,0.973-0.858,0.973h-4.319v3.572h-2.457v0.455h-0.515v-3.334h-1.138v-2.98
					c0,0-0.547-0.543-0.336-0.783c0.212-0.24,0.401-0.654,0.401-0.654v-0.479h-0.357v-1.064h-0.938v-0.428h-1.586v0.48h-0.469v0.656
					h-3.035v-0.76h-0.603v-0.479h-1.25l-0.402,0.453h-0.648v1.287h-0.288v5.402c0,0-0.762,0.078-0.762,0.561
					c0,0.479-0.088,0.904-0.088,0.904h-0.355v7.1h-1.073v0.652h-0.69v1.035h-0.848v-0.529h-0.534v-8.104h-6.318
					c0,0,0,13.998,0,23.631h151.114v0.002H294.628z"/>
				<g>
					<path fill="#8EC32C" d="M145,828.873c-0.154-4.857-0.315-9.893-0.315-9.893l-0.137-12.955h-2.542v-0.609h-0.604l-0.2-1.055
						h-5.427v0.754h-0.535v2.199h-2.344v2.727l-2.312,2.615v-3.6l-0.953-1.08l-1.426,0.928v-0.984h-3.549v-5.076h-3.886v0.982
						c0,0-0.567-0.492-0.567-1.588c0-1.102,0-2.5,0-2.5s-0.07,2.611-0.404,2.994c-0.332,0.377-0.332,1.172-0.332,1.172h-1.206v6.703
						h-0.535c0,0-0.337-0.451-0.907-0.451c-0.566,0-0.938,0-0.938,0s-0.634-0.229-1.137,0c-0.501,0.229-0.787,0.549-0.787,0.549
						h-0.519v0.963h-0.537v-2.686c0,0-0.149-1.082-0.336-1.289c-0.183-0.209-0.385,0.02-0.385,0.02v-3.391l-0.342-0.217
						l-0.199-0.227l-0.425-0.201l-0.837-0.945v-0.344h-0.257l-0.134-3.637c0,0-0.827,1.336-1.008,1.336
						c-0.179,0,0.022,0.508,0.022,0.508l0.894-0.557v2.273h-0.4l-0.18,0.578c0,0-0.69,0.834-1.05,0.936
						c-0.355,0.104-0.424,0.381-0.424,0.811c0,0.428,0,2.551,0,2.551h-0.313v0.305h-0.425v-0.434h-0.736v0.457h-0.625
						c0,0-0.469,0.051-0.469,1.666c0,1.617,0,5,0,5h-3.707v-0.58h-1.404v0.734h-0.38v-0.707h-0.581v-3.182H97.42
						c0,0-0.023-0.434-0.203-0.434c-0.178,0-0.335,0-0.335,0l-0.669-9.9h-0.291l-0.734-8.283c0,0-0.472-0.578-0.472,0.127
						c0,0.707-0.892,8.234-0.892,8.234H93.6l-1.72,17.506h-0.313v-0.711H87.35v-11.338h-3.843v-0.889h-0.489v-1.844
						c0,0-0.471,0.404-0.581,0.404s-0.11,0.379-0.11,0.379l0.491-0.229v1.768h-0.246v-0.684h-0.536v0.531h-0.58v-0.43h-0.604v0.402
						h0.335v0.561h-1.495v8.914c0,0-0.021-0.379-1.049-0.734c-1.027-0.352-3.729-0.428-3.729-0.428H74.34v-0.58h-3.307v1.033h-1.697
						v0.354h0.827v0.605h-0.624v2.047c0,0-1.026-0.027-1.026-0.58c0-0.559,0-8.336,0-8.336h-0.693v-2.123h-0.69v-12.955H65.14
						v-1.818h-5.336v1.971h-1.986v16.518h-0.514v-0.631h-0.691v-1.74h-4.107v1.918h-0.669v1.063h-0.226v-0.48h-1.763v-6.414H48.73
						c0,0-0.111-0.732-0.537-0.732c-0.422,0-0.733-0.125-0.733-0.125v-3.361l-0.481,0.543v1.201h-0.301v1.922h-1.115v0.555H44.38
						v0.832h-2.212v0.508h-2.5v1.158l-0.669-0.324c0,0,0.58-1.518,0-1.518c-0.582,0-0.582,0-0.582,0l-0.58,0.254H32.39v1.084h-0.354
						v0.279H30.09v-0.709h-0.426v0.629h-1.606v0.861h-1.811v-2.953h-0.244v-0.684h-5.892v-0.43h-0.985c0,0,0-0.908-0.398-0.908
						c-0.403,0-0.856,0.973-0.856,0.973h-4.322v3.572h-2.456v0.455H10.58v-3.334H9.438v-2.98c0,0-0.547-0.543-0.334-0.783
						c0.212-0.24,0.399-0.654,0.399-0.654v-0.479H9.148v-1.064H8.21v-0.428H6.623v0.48H6.156v0.656H3.121v-0.76H2.517v-0.479H1.269
						l-0.4,0.451H0.219v1.289c0,0-0.101,0-0.183,0c0,0,0,19.438,0,30.65H145V828.873z"/>
				</g>
			</g>
		</g>
	</g>
	<g>
		<g>
			<path fill="#74BB2A" d="M583.105,821.435c-0.258,0-0.449,0-0.449,0v-0.402h-0.402l-0.135-0.711h-3.63v0.508h-0.355v1.467h-1.567
				v1.826l-1.544,1.748v-2.406l-0.639-0.723l-0.953,0.621v-0.66h-2.375v-3.395h-2.598v0.658c0,0-0.381-0.33-0.381-1.063
				c0-0.738,0-1.672,0-1.672s-0.045,1.746-0.27,2c-0.223,0.254-0.223,0.785-0.223,0.785h-0.808v4.48h-0.358
				c0,0-0.227-0.303-0.605-0.303s-0.627,0-0.627,0s-0.425-0.152-0.761,0s-0.525,0.367-0.525,0.367h-0.348v0.646h-0.359v-1.801
				c0,0-0.099-0.723-0.225-0.859c-0.12-0.141-0.255,0.01-0.255,0.01v-2.264l-0.229-0.146l-0.135-0.15l-0.284-0.135l-0.561-0.635
				v-0.227h-0.168l-0.092-2.434c0,0-0.555,0.895-0.675,0.895c-0.117,0,0.017,0.336,0.017,0.336l0.6-0.371v1.521h-0.271l-0.119,0.387
				c0,0-0.463,0.561-0.7,0.627c-0.237,0.07-0.282,0.254-0.282,0.541c0,0.283,0,1.703,0,1.703h-0.21v0.207h-0.284v-0.289h-0.492
				v0.305h-0.42c0,0-0.312,0.033-0.312,1.113c0,1.082,0,3.344,0,3.344h-2.479v-0.389h-0.939v0.49h-0.252v-0.473h-0.392v-2.129
				h-1.191c0,0-0.02-0.287-0.137-0.287c-0.12,0-0.225,0-0.225,0l-0.446-6.621h-0.193l-0.491-5.537c0,0-0.315-0.391-0.315,0.082
				c0,0.475-0.597,5.508-0.597,5.508h-0.149l-1.149,11.705h-0.207v-0.477h-2.824v-7.582h-2.565v-0.592h-0.328v-1.232
				c0,0-0.313,0.271-0.389,0.271c-0.074,0-0.074,0.252-0.074,0.252l0.326-0.15v1.18h-0.162v-0.453h-0.355v0.354h-0.39v-0.283h-0.404
				v0.268h0.225v0.373h-1.001v5.965c0,0-0.016-0.256-0.702-0.49c-0.687-0.236-2.489-0.289-2.489-0.289h-0.392v-0.387h-2.209v0.691
				h-1.137v0.232h0.555v0.406h-0.42v1.369c0,0-0.684-0.016-0.684-0.389c0-0.371,0-5.576,0-5.576h-0.465v-1.416h-0.462v-8.664h-1.327
				v-1.219h-3.571v1.316h-1.328v11.047h-0.345v-0.422h-0.461v-1.166h-2.752v1.285h-0.447v0.709h-0.149v-0.32h-1.179v-4.291h-0.746
				c0,0-0.075-0.49-0.358-0.49c-0.281,0-0.491-0.084-0.491-0.084v-2.248l-0.321,0.365v0.803h-0.203v1.283h-0.744v0.371h-0.791v0.557
				h-1.479v0.34h-1.673v0.773l-0.446-0.217c0,0,0.387-1.014,0-1.014c-0.39,0-0.39,0-0.39,0l-0.392,0.168h-3.64v0.729h-0.24v0.184
				h-1.298v-0.471h-0.285v0.424h-1.076v0.572h-1.208v-1.977h-0.165v-0.457h-3.94v-0.289h-0.656c0,0,0-0.605-0.267-0.605
				c-0.271,0-0.576,0.65-0.576,0.65h-2.892v2.391h-1.644v0.303h-0.342v-2.229h-0.762V817.4c0,0-0.366-0.365-0.228-0.525
				c0.142-0.16,0.271-0.436,0.271-0.436v-0.324h-0.24v-0.707h-0.627v-0.287h-1.063v0.32h-0.313v0.438h-2.032v-0.506h-0.401v-0.32
				h-0.834l-0.27,0.307h-0.437v0.857h-0.19v3.613c0,0-0.51,0.053-0.51,0.375c0,0.32-0.059,0.605-0.059,0.605h-0.24v4.748h-0.716
				v0.438c0,0-0.006,0-0.019,0v15.895c19.734,0,85.512,0,97.006,0L583.105,821.435L583.105,821.435z"/>
			<path fill="#74BB2A" d="M487.113,841.89c0-3.816,0-20.455,0-20.455c-0.213,0-0.357,0-0.357,0v-0.402h-0.405l-0.135-0.711h-3.625
				v0.508h-0.359v1.467h-1.568v1.826l-1.544,1.748v-2.406l-0.642-0.723l-0.95,0.621v-0.66h-2.374v-3.395h-2.597v0.658
				c0,0-0.384-0.33-0.384-1.063c0-0.738,0-1.672,0-1.672s-0.042,1.746-0.269,2c-0.225,0.254-0.225,0.785-0.225,0.785h-0.809v4.48
				h-0.354c0,0-0.227-0.303-0.605-0.303s-0.627,0-0.627,0s-0.426-0.152-0.762,0s-0.527,0.367-0.527,0.367h-0.345v0.646h-0.354
				v-1.801c0,0-0.104-0.723-0.229-0.859c-0.123-0.141-0.255,0.01-0.255,0.01v-2.264l-0.229-0.146l-0.138-0.15l-0.282-0.135
				l-0.561-0.635v-0.227h-0.171l-0.09-2.434c0,0-0.554,0.895-0.673,0.895c-0.118,0,0.017,0.336,0.017,0.336l0.597-0.371v1.521
				h-0.268l-0.119,0.387c0,0-0.465,0.561-0.702,0.627c-0.239,0.07-0.284,0.254-0.284,0.541c0,0.283,0,1.703,0,1.703h-0.21v0.207
				h-0.282v-0.289h-0.492v0.305h-0.417c0,0-0.314,0.033-0.314,1.113c0,1.082,0,3.344,0,3.344h-2.477v-0.389h-0.941v0.49h-0.252
				v-0.473h-0.39v-2.129h-1.196c0,0-0.016-0.287-0.132-0.287c-0.12,0-0.227,0-0.227,0l-0.45-6.621h-0.189l-0.495-5.537
				c0,0-0.313-0.391-0.313,0.082c0,0.475-0.601,5.508-0.601,5.508h-0.146l-1.15,11.705h-0.21v-0.477h-2.821v-7.582h-2.564v-0.592
				h-0.33v-1.232c0,0-0.314,0.271-0.389,0.271c-0.073,0-0.072,0.252-0.072,0.252l0.324-0.15v1.18h-0.16v-0.453h-0.359v0.354h-0.387
				v-0.283h-0.405v0.268h0.226v0.373h-1.001v5.965c0,0-0.015-0.256-0.699-0.49c-0.688-0.236-2.494-0.289-2.494-0.289h-0.391v-0.387
				h-2.213v0.691h-1.135v0.232h0.553v0.406h-0.418v1.369c0,0-0.686-0.016-0.686-0.389c0-0.371,0-5.576,0-5.576h-0.465v-1.416h-0.463
				v-8.664h-1.329v-1.219h-3.568v1.316h-1.328v11.047h-0.345v-0.422h-0.46v-1.166h-2.749v1.285h-0.448v0.709h-0.146v-0.32h-1.182
				v-4.291h-0.746c0,0-0.073-0.49-0.356-0.49c-0.285,0-0.493-0.084-0.493-0.084v-2.248l-0.321,0.365v0.803h-0.201v1.283h-0.747
				v0.371h-0.79v0.557h-1.479v0.34h-1.673v0.773l-0.448-0.217c0,0,0.391-1.014,0-1.014c-0.388,0-0.388,0-0.388,0l-0.389,0.168
				h-3.645v0.729h-0.238v0.184h-1.301v-0.471h-0.283v0.424h-1.073v0.572h-1.208v-1.977h-0.165v-0.457h-3.941v-0.289h-0.657
				c0,0,0-0.605-0.269-0.605c-0.271,0-0.574,0.65-0.574,0.65h-2.89v2.391h-1.646v0.303h-0.342v-2.229h-0.762V817.4
				c0,0-0.365-0.365-0.227-0.525c0.145-0.16,0.271-0.436,0.271-0.436v-0.324h-0.24v-0.707h-0.627v-0.287h-1.062v0.32h-0.31v0.438
				h-2.03v-0.506h-0.401v-0.32h-0.834l-0.271,0.307h-0.433v0.857h-0.193v3.613c0,0-0.509,0.053-0.509,0.375
				c0,0.32-0.062,0.605-0.062,0.605h-0.236v4.748h-0.717v0.438h-0.465v0.689h-0.566v-0.354h-0.356v-5.422H384.6
				c0,0,0,17.102,0,20.979h102.513V841.89z"/>
			<path fill="#74BB2A" d="M280.389,841.89c25.43,0,105.372,0,105.372,0c-0.095-2.736-0.409-11.791-0.409-11.791l-0.099-8.664
				h-1.845v-0.402h-0.436l-0.146-0.711h-3.934v0.508h-0.389v1.467h-1.696v1.826l-1.675,1.748v-2.406l-0.69-0.723l-1.033,0.621v-0.66
				h-2.57v-3.393h-2.815v0.656c0,0-0.412-0.33-0.412-1.063c0-0.738,0-1.672,0-1.672s-0.049,1.746-0.292,2
				c-0.241,0.254-0.241,0.785-0.241,0.785h-0.873v4.48h-0.39c0,0-0.244-0.303-0.656-0.303c-0.408,0-0.679,0-0.679,0
				s-0.459-0.152-0.824,0c-0.361,0.152-0.568,0.367-0.568,0.367h-0.376v0.646h-0.391v-1.801c0,0-0.107-0.723-0.242-0.859
				c-0.132-0.141-0.278,0.01-0.278,0.01v-2.264l-0.246-0.146l-0.146-0.15l-0.307-0.135l-0.606-0.635v-0.227h-0.187l-0.096-2.434
				c0,0-0.602,0.895-0.729,0.895s0.017,0.336,0.017,0.336l0.647-0.371v1.521h-0.291l-0.131,0.387c0,0-0.5,0.561-0.76,0.627
				c-0.259,0.07-0.31,0.254-0.31,0.541c0,0.283,0,1.703,0,1.703h-0.226v0.207h-0.31v-0.289h-0.532v0.305h-0.454
				c0,0-0.339,0.033-0.339,1.113c0,1.082,0,3.344,0,3.344h-2.688v-0.389h-1.018v0.49h-0.276v-0.473h-0.421v-2.129h-1.292
				c0,0-0.02-0.285-0.147-0.285s-0.24,0-0.24,0l-0.486-6.623h-0.21l-0.533-5.537c0,0-0.341-0.391-0.341,0.082
				c0,0.475-0.646,5.508-0.646,5.508h-0.162l-1.244,11.705h-0.229v-0.477h-3.059v-7.582h-2.783v-0.592h-0.354v-1.232
				c0,0-0.342,0.271-0.422,0.271s-0.08,0.252-0.08,0.252l0.356-0.15v1.18h-0.18v-0.453h-0.391v0.354h-0.42v-0.283h-0.438v0.268
				h0.243v0.373h-1.084v5.965c0,0-0.019-0.256-0.762-0.49c-0.743-0.236-2.701-0.289-2.701-0.289h-0.422v-0.387h-2.395v0.691h-1.229
				v0.232h0.6v0.406h-0.453v1.369c0,0-0.745-0.016-0.745-0.389c0-0.371,0-5.576,0-5.576h-0.502v-1.416h-0.5v-8.664h-1.439v-1.219
				h-3.867v1.316h-1.438v11.047h-0.372v-0.422h-0.501v-1.166h-2.979v1.285h-0.485v0.709h-0.162v-0.32h-1.275v-4.291h-0.81
				c0,0-0.082-0.49-0.39-0.49s-0.532-0.084-0.532-0.084v-2.248l-0.35,0.365v0.803h-0.221v1.283h-0.808v0.371h-0.857v0.557h-1.601
				v0.34h-1.813v0.773l-0.483-0.215c0,0,0.42-1.016,0-1.016c-0.423,0-0.423,0-0.423,0l-0.42,0.168h-3.948v0.729h-0.258v0.184h-1.407
				v-0.471h-0.311v0.424h-1.164v0.572h-1.312v-1.977h-0.178v-0.457h-4.269v-0.289h-0.717c0,0,0-0.605-0.29-0.605
				c-0.291,0-0.621,0.65-0.621,0.65h-3.133v2.391h-1.777v0.303h-0.373v-2.229h-0.826V817.4c0,0-0.396-0.365-0.239-0.525
				c0.151-0.16,0.289-0.436,0.289-0.436v-0.324h-0.259v-0.707h-0.68v-0.287h-1.148v0.32h-0.34v0.438h-2.198v-0.506h-0.438v-0.32
				h-0.903l-0.29,0.307h-0.47v0.857h-0.213v3.613c0,0-0.023,0.004-0.063,0.008v22.053H280.389L280.389,841.89z"/>
		</g>
		<g>
			<path fill="#74BB2A" d="M0.186,821.435c0.255,0,0.447,0,0.447,0v-0.402h0.403l0.135-0.711h3.629v0.508h0.357v1.467h1.566v1.826
				l1.546,1.748v-2.406l0.639-0.723l0.952,0.621v-0.66h2.373v-3.395h2.598v0.658c0,0,0.382-0.33,0.382-1.063
				c0-0.738,0-1.672,0-1.672s0.045,1.746,0.271,2c0.224,0.254,0.224,0.785,0.224,0.785h0.808v4.48h0.357
				c0,0,0.226-0.303,0.604-0.303c0.381,0,0.629,0,0.629,0s0.426-0.152,0.761,0c0.336,0.152,0.526,0.367,0.526,0.367h0.349v0.646
				h0.356v-1.801c0,0,0.1-0.723,0.225-0.859c0.122-0.141,0.259,0.01,0.259,0.01v-2.264l0.229-0.146l0.134-0.15l0.283-0.135
				l0.562-0.635v-0.227h0.171l0.089-2.434c0,0,0.556,0.895,0.675,0.895c0.118,0-0.017,0.336-0.017,0.336l-0.599-0.371v1.521h0.27
				l0.12,0.387c0,0,0.463,0.561,0.7,0.627c0.238,0.07,0.283,0.254,0.283,0.541c0,0.283,0,1.703,0,1.703h0.209v0.207h0.285v-0.289
				h0.491v0.305h0.418c0,0,0.313,0.033,0.313,1.113c0,1.082,0,3.344,0,3.344h2.479v-0.389h0.939v0.49h0.253v-0.473h0.389v-2.129
				h1.194c0,0,0.018-0.287,0.134-0.287c0.119,0,0.227,0,0.227,0l0.446-6.621h0.194l0.489-5.537c0,0,0.314-0.391,0.314,0.082
				c0,0.475,0.598,5.508,0.598,5.508h0.148l1.15,11.705h0.207v-0.477h2.822v-7.582h2.567v-0.592h0.328v-1.232
				c0,0,0.313,0.271,0.391,0.271c0.072,0,0.072,0.252,0.072,0.252l-0.328-0.15v1.18h0.165v-0.453h0.355v0.354h0.39v-0.283h0.403
				v0.268h-0.225v0.373h1v5.965c0,0,0.016-0.256,0.701-0.49c0.688-0.236,2.493-0.289,2.493-0.289h0.388v-0.387h2.211v0.691h1.135
				v0.232h-0.55v0.406h0.419v1.369c0,0,0.687-0.016,0.687-0.389c0-0.371,0-5.576,0-5.576h0.465v-1.416h0.461v-8.664h1.328v-1.219
				h3.568v1.316h1.33v11.047h0.345v-0.422h0.461v-1.166h2.748v1.285h0.446v0.709h0.148v-0.32h1.182v-4.291h0.744
				c0,0,0.075-0.49,0.36-0.49c0.28,0,0.489-0.084,0.489-0.084v-2.248l0.323,0.365v0.803h0.202v1.283h0.743v0.371h0.791v0.557h1.479
				v0.34h1.675v0.773l0.446-0.217c0,0-0.39-1.014,0-1.014s0.39,0,0.39,0l0.388,0.168h3.643v0.729h0.24v0.184h1.298v-0.471h0.284
				v0.424h1.075v0.572h1.209v-1.977h0.164v-0.457h3.94v-0.289h0.656c0,0,0-0.605,0.271-0.605c0.269,0,0.573,0.65,0.573,0.65h2.89
				v2.391h1.644v0.303h0.344v-2.229h0.763V817.4c0,0,0.364-0.365,0.225-0.525c-0.141-0.16-0.27-0.436-0.27-0.436v-0.324h0.238
				v-0.707h0.626v-0.287h1.063v0.32h0.313v0.438h2.031v-0.506h0.401v-0.32h0.834l0.271,0.307h0.435v0.857h0.192v3.613
				c0,0,0.509,0.053,0.509,0.375c0,0.32,0.06,0.605,0.06,0.605h0.239v4.748h0.717v0.438c0,0,0.006,0,0.019,0v15.895
				c-19.735,0-85.514,0-97.006,0v-20.453H0.186V821.435z"/>
			<g>
				<path fill="#74BB2A" d="M96.177,841.89c0-3.816,0-20.455,0-20.455c0.212,0,0.359,0,0.359,0v-0.402h0.402l0.135-0.711h3.628
					v0.508h0.357v1.467h1.567v1.826l1.545,1.748v-2.406l0.641-0.723l0.95,0.621v-0.66h2.376v-3.395h2.597v0.658
					c0,0,0.382-0.33,0.382-1.063c0-0.738,0-1.672,0-1.672s0.045,1.746,0.27,2s0.225,0.785,0.225,0.785h0.807v4.48h0.358
					c0,0,0.224-0.303,0.604-0.303s0.627,0,0.627,0s0.427-0.152,0.763,0c0.335,0.152,0.526,0.367,0.526,0.367h0.347v0.646h0.356
					v-1.801c0,0,0.103-0.723,0.227-0.859c0.124-0.141,0.257,0.01,0.257,0.01v-2.264l0.229-0.146l0.137-0.15l0.282-0.135l0.562-0.635
					v-0.227h0.172l0.089-2.434c0,0,0.553,0.895,0.672,0.895c0.121,0-0.015,0.336-0.015,0.336l-0.598-0.371v1.521h0.268l0.121,0.387
					c0,0,0.463,0.561,0.701,0.627c0.237,0.07,0.282,0.254,0.282,0.541c0,0.283,0,1.703,0,1.703h0.212v0.207h0.28v-0.289h0.494v0.305
					h0.417c0,0,0.313,0.033,0.313,1.113c0,1.082,0,3.344,0,3.344h2.479v-0.389h0.94v0.49h0.252v-0.473h0.39v-2.129h1.194
					c0,0,0.017-0.287,0.133-0.287c0.121,0,0.226,0,0.226,0l0.449-6.621h0.192l0.493-5.537c0,0,0.313-0.391,0.313,0.082
					c0,0.475,0.598,5.508,0.598,5.508h0.149l1.148,11.705h0.209v-0.477h2.821v-7.582h2.565v-0.592h0.33v-1.232
					c0,0,0.313,0.271,0.39,0.271c0.072,0,0.072,0.252,0.072,0.252l-0.327-0.15v1.18h0.163v-0.453h0.359v0.354h0.387v-0.283h0.403
					v0.268h-0.226v0.373h1.001v5.965c0,0,0.016-0.256,0.702-0.49c0.688-0.236,2.493-0.289,2.493-0.289h0.388v-0.387h2.211v0.691
					h1.135v0.232h-0.554v0.406h0.419v1.369c0,0,0.687-0.016,0.687-0.389c0-0.371,0-5.576,0-5.576h0.463v-1.416h0.464v-8.664h1.329
					v-1.219h3.567v1.316h1.327v11.047h0.347v-0.422h0.46v-1.166h2.75v1.285h0.446v0.709h0.147v-0.32h1.181v-4.291h0.747
					c0,0,0.074-0.49,0.357-0.49c0.284,0,0.493-0.084,0.493-0.084v-2.248l0.32,0.365v0.803h0.201v1.283h0.746v0.371h0.791v0.557
					h1.479v0.34h1.673v0.773l0.448-0.217c0,0-0.389-1.014,0-1.014c0.388,0,0.388,0,0.388,0l0.39,0.168h3.643v0.729h0.239v0.184h1.3
					v-0.471h0.283v0.424h1.075v0.572h1.209v-1.977h0.164v-0.457h3.941v-0.289h0.655c0,0,0-0.605,0.27-0.605
					c0.271,0,0.575,0.65,0.575,0.65h2.889v2.391h1.645v0.303h0.344v-2.229h0.76V817.4c0,0,0.367-0.365,0.227-0.525
					c-0.142-0.16-0.271-0.436-0.271-0.436v-0.324h0.241v-0.707h0.626v-0.287h1.062v0.32h0.313v0.438h2.029v-0.506h0.401v-0.32h0.836
					l0.271,0.307h0.435v0.857h0.193v3.613c0,0,0.508,0.053,0.508,0.375c0,0.32,0.062,0.605,0.062,0.605h0.236v4.748h0.719v0.438
					h0.462v0.689h0.566v-0.354h0.356v-5.422h4.228c0,0,0,17.102,0,20.979H96.177V841.89z"/>
				<path fill="#74BB2A" d="M294.775,841.89c-23.469,0-97.247,0-97.247,0c0.09-2.736,0.381-11.791,0.381-11.791l0.09-8.664h1.699
					v-0.402h0.403l0.135-0.711h3.629v0.508h0.357v1.467h1.566v1.826l1.546,1.748v-2.406l0.638-0.723l0.952,0.621v-0.66h2.374v-3.393
					h2.6v0.656c0,0,0.38-0.33,0.38-1.063c0-0.738,0-1.672,0-1.672s0.046,1.746,0.271,2c0.223,0.254,0.223,0.785,0.223,0.785h0.809
					v4.48h0.356c0,0,0.226-0.303,0.606-0.303c0.379,0,0.625,0,0.625,0s0.424-0.152,0.762,0c0.335,0.152,0.525,0.367,0.525,0.367
					h0.346v0.646h0.359v-1.801c0,0,0.101-0.723,0.225-0.859c0.122-0.141,0.259,0.01,0.259,0.01v-2.264l0.229-0.146l0.135-0.15
					l0.282-0.135l0.562-0.635v-0.227h0.172l0.089-2.434c0,0,0.555,0.895,0.673,0.895c0.12,0-0.015,0.336-0.015,0.336l-0.599-0.371
					v1.521h0.27l0.119,0.387c0,0,0.463,0.561,0.703,0.627c0.237,0.07,0.282,0.254,0.282,0.541c0,0.283,0,1.703,0,1.703h0.208v0.207
					h0.284v-0.289h0.491v0.305h0.418c0,0,0.313,0.033,0.313,1.113c0,1.082,0,3.344,0,3.344h2.479v-0.389h0.938v0.49h0.257v-0.473
					h0.388v-2.129h1.192c0,0,0.016-0.285,0.136-0.285c0.118,0,0.225,0,0.225,0l0.447-6.623h0.194l0.491-5.537
					c0,0,0.313-0.391,0.313,0.082c0,0.475,0.597,5.508,0.597,5.508h0.149l1.147,11.705h0.211v-0.477h2.82v-7.582h2.567v-0.592h0.328
					v-1.232c0,0,0.313,0.271,0.39,0.271c0.073,0,0.073,0.252,0.073,0.252l-0.33-0.15v1.18h0.166v-0.453h0.358v0.354h0.389v-0.283
					h0.402v0.268h-0.224v0.373h0.999v5.965c0,0,0.016-0.256,0.7-0.49c0.688-0.236,2.494-0.289,2.494-0.289h0.387v-0.387h2.211v0.691
					h1.138v0.232h-0.556v0.406h0.418v1.369c0,0,0.688-0.016,0.688-0.389c0-0.371,0-5.576,0-5.576h0.465v-1.416h0.462v-8.664h1.329
					v-1.219h3.568v1.316H256v11.047h0.345v-0.422h0.461v-1.166h2.748v1.285h0.447v0.709h0.148v-0.32h1.181v-4.291h0.745
					c0,0,0.076-0.49,0.36-0.49c0.279,0,0.489-0.084,0.489-0.084v-2.248l0.322,0.365v0.803h0.201v1.283h0.745v0.371h0.79v0.557h1.479
					v0.34h1.671v0.773l0.449-0.215c0,0-0.39-1.016,0-1.016c0.388,0,0.388,0,0.388,0l0.389,0.168h3.644v0.729h0.239v0.184h1.3v-0.471
					h0.283v0.424h1.075v0.572h1.209v-1.977h0.166v-0.457h3.938v-0.289h0.659c0,0,0-0.605,0.269-0.605c0.27,0,0.573,0.65,0.573,0.65
					h2.891v2.391h1.643v0.303h0.344v-2.229h0.764V817.4c0,0,0.365-0.365,0.224-0.525s-0.27-0.436-0.27-0.436v-0.324h0.238v-0.707
					h0.628v-0.287h1.063v0.32h0.313v0.438h2.028v-0.506h0.405v-0.32h0.835l0.269,0.307h0.435v0.857h0.194v3.613
					c0,0,0.021,0.004,0.06,0.008L294.775,841.89L294.775,841.89z"/>
			</g>
		</g>
	</g>
</g>
</svg>
